<?xml version="1.0" encoding="utf-8"?>
<?xml-stylesheet type="text/xsl" href="rss1.xsl"?>
<rss version="2.0" xmlns:atom="http://www.w3.org/2005/Atom" xmlns:content="http://purl.org/rss/1.0/modules/content/" xmlns:dc="http://purl.org/dc/elements/1.1/" xmlns:media="http://search.yahoo.com/mrss/">
<channel>
 <title>Getty</title>
 <link>http://www.gettyimg.com/</link>
 <atom:link href="http://www.gettyimg.com/" rel="self" type="application/rss+xml" />

 
                <item>
                <title><![CDATA[【Requests】[REQ AUD] - J. King, Dinah Jane - Falling In Love (FLAC 16bits)]]></title>
                <link><![CDATA[https://sharemania.us/threads/j-king-dinah-jane-falling-in-love-flac-16bits.228887/]]></link>
                <description><![CDATA[<article>
<blockquote class="messageText SelectQuoteContainer ugc baseHtml">
Single out now, please share it!!♡
<div class="messageTextEndMarker">&nbsp;</div>
</blockquote>
</article>]]></description>
                <author><![CDATA[thefilesfly]]></author>
                </item>

                
                <item>
                <title><![CDATA[【Singles (lossless)】FLAC - Street Woman Fighter2 (SWF2) [Class Mission] (Amazon Music FLAC 16bits/44.1kHz)]]></title>
                <link><![CDATA[https://sharemania.us/threads/street-woman-fighter2-swf2-class-mission-amazon-music-flac-16bits-44-1khz.228881/]]></link>
                <description><![CDATA[<article>
<blockquote class="messageText SelectQuoteContainer ugc baseHtml">
<img src="https://images2.imgbox.com/f4/f3/YhnaUKhR_o.jpg" class="bbCodeImage LbImage" alt="[​IMG]" data-url="https://images2.imgbox.com/f4/f3/YhnaUKhR_o.jpg" style=""><br>
<br>
<div class="ToggleTriggerAnchor bbCodeSpoilerContainer">
<button type="button" class="button bbCodeSpoilerButton ToggleTrigger Tooltip JsOnly" data-target="> .SpoilerTarget"><span>Spoiler: <span class="SpoilerTitle">Track List</span></span></button>
<div class="SpoilerTarget bbCodeSpoilerText">1. "Smoke" by <a href="https://en.wikipedia.org/wiki/Dynamic_Duo_(South_Korean_duo)" target="_blank" class="externalLink" rel="nofollow">Dynamic Duo</a>, <a href="https://en.wikipedia.org/wiki/Lee_Young-ji" target="_blank" class="externalLink" rel="nofollow">Lee Young-ji</a><br>
2. "Click Like" by <a href="https://en.wikipedia.org/wiki/Crush_(singer)" target="_blank" class="externalLink" rel="nofollow">Crush</a> featuring Paul Blanco<br>
3."Swipe" by <a href="https://en.wikipedia.org/wiki/Lee_Tae-yong" target="_blank" class="externalLink" rel="nofollow">Taeyong</a>, <a href="https://en.wikipedia.org/wiki/Ten_(singer)" target="_blank" class="externalLink" rel="nofollow">Ten</a> (<a href="https://en.wikipedia.org/wiki/NCT_(group)" target="_blank" class="externalLink" rel="nofollow">NCT</a>)<br>
4."How to Twerk" by <a href="https://en.wikipedia.org/wiki/Cho_Mi-yeon" target="_blank" class="externalLink" rel="nofollow">Miyeon</a>, <a href="https://en.wikipedia.org/wiki/Song_Yuqi" target="_blank" class="externalLink" rel="nofollow">Yuqi</a> (<a href="https://en.wikipedia.org/wiki/(G)I-dle" target="_blank" class="externalLink" rel="nofollow">(G)I-dle</a>)</div>
</div><br>
<span data-s9e-mediaembed="youtube" style="display:inline-block;width:100%;max-width:640px"><span style="display:block;overflow:hidden;position:relative;padding-bottom:56.25%"><iframe allowfullscreen="" loading="lazy" scrolling="no" style="background:url(https://i.ytimg.com/vi/iuIzniSa1Hs/hqdefault.jpg) 50% 50% / cover;border:0;height:100%;left:0;position:absolute;width:100%" src="https://www.youtube.com/embed/iuIzniSa1Hs"></iframe></span></span><br>
<br>
<span data-s9e-mediaembed="youtube" style="display:inline-block;width:100%;max-width:640px"><span style="display:block;overflow:hidden;position:relative;padding-bottom:56.25%"><iframe allowfullscreen="" loading="lazy" scrolling="no" style="background:url(https://i.ytimg.com/vi/aUQvmoGQ22c/hqdefault.jpg) 50% 50% / cover;border:0;height:100%;left:0;position:absolute;width:100%" src="https://www.youtube.com/embed/aUQvmoGQ22c"></iframe></span></span><br>
<br>
<span data-s9e-mediaembed="youtube" style="display:inline-block;width:100%;max-width:640px"><span style="display:block;overflow:hidden;position:relative;padding-bottom:56.25%"><iframe allowfullscreen="" loading="lazy" scrolling="no" style="background:url(https://i.ytimg.com/vi/-kL_23ygqKg/hqdefault.jpg) 50% 50% / cover;border:0;height:100%;left:0;position:absolute;width:100%" src="https://www.youtube.com/embed/-kL_23ygqKg"></iframe></span></span><br>
<br>
<span data-s9e-mediaembed="youtube" style="display:inline-block;width:100%;max-width:640px"><span style="display:block;overflow:hidden;position:relative;padding-bottom:56.25%"><iframe allowfullscreen="" loading="lazy" scrolling="no" style="background:url(https://i.ytimg.com/vi/FB2KQampTG4/hqdefault.jpg) 50% 50% / cover;border:0;height:100%;left:0;position:absolute;width:100%" src="https://www.youtube.com/embed/FB2KQampTG4"></iframe></span></span><br>
<br>
<div class="bbCodeBlock bbCodeVfcHH HiddenContent">
<div class="attribution type">Hidden Content:</div>
<blockquote>You must either reply or click 'Like' to see the hidden information contained here.</blockquote>
</div>
<div class="messageTextEndMarker">&nbsp;</div>
</blockquote>
</article>]]></description>
                <author><![CDATA[Eric Lyn]]></author>
                </item>

                
                <item>
                <title><![CDATA[【Bugs!】Kim Sejeong - «Voyage» [Bugs! 2160p]]]></title>
                <link><![CDATA[https://sharemania.us/threads/kim-sejeong-%C2%ABvoyage%C2%BB-bugs-2160p.228884/]]></link>
                <description><![CDATA[<article>
<blockquote class="messageText SelectQuoteContainer ugc baseHtml">
<div style="text-align: center"><img src="https://i.imgur.com/lD7KLnq.jpg" class="bbCodeImage LbImage" alt="[​IMG]" data-url="https://i.imgur.com/lD7KLnq.jpg" style=""> <br>
<br>
<img src="https://i.imgur.com/OD5kIQ9.jpg" class="bbCodeImage LbImage" alt="[​IMG]" data-url="https://i.imgur.com/OD5kIQ9.jpg" style=""> <br>
<div class="ToggleTriggerAnchor bbCodeSpoilerContainer">
<button type="button" class="button bbCodeSpoilerButton ToggleTrigger Tooltip JsOnly" data-target="> .SpoilerTarget"><span>Spoiler: <span class="SpoilerTitle">Media Info</span></span></button>
<div class="SpoilerTarget bbCodeSpoilerText">
<div class="bbCodeBlock bbCodeQuote">
<aside>
<blockquote class="quoteContainer"><div class="quote">General<br>
Complete name : KIM SEJEONG - Voyage (Bugs!).mp4<br>
Format : MPEG-4<br>
Format profile : Base Media / Version 2<br>
Codec ID : mp42 (mp42/mp41)<br>
File size : 954 MiB<br>
Duration : 4 min 22 s<br>
Overall bit rate mode : Variable<br>
Overall bit rate : 30.4 Mb/s<br>
Frame rate : 24.000 FPS<br>
Encoded date : 2023-08-22 07:21:12 UTC<br>
Tagged date : 2023-08-22 07:22:20 UTC<br>
TIM : 00:00:00:00<br>
TSC : 12288<br>
TSZ : 512<br>
<br>
Video<br>
ID : 1<br>
Format : AVC<br>
Format/Info : Advanced Video Codec<br>
Format profile : Main@L5.1<br>
Format settings : CABAC / 2 Ref Frames<br>
Format settings, CABAC : Yes<br>
Format settings, Reference : 2 frames<br>
Codec ID : avc1<br>
Codec ID/Info : Advanced Video Coding<br>
Duration : 4 min 22 s<br>
Bit rate : 30.1 Mb/s<br>
Width : 3 840 pixels<br>
Height : 2 160 pixels<br>
Display aspect ratio : 16:9<br>
Frame rate mode : Constant<br>
Frame rate : 24.000 FPS<br>
Color space : YUV<br>
Chroma subsampling : 4:2:0<br>
Bit depth : 8 bits<br>
Scan type : Progressive<br>
Bits/(Pixel*Frame) : 0.151<br>
Stream size : 944 MiB (99%)<br>
Language : English<br>
Encoded date : 2023-08-22 07:21:12 UTC<br>
Tagged date : 2023-08-22 07:21:12 UTC<br>
Color range : Limited<br>
Color primaries : BT.709<br>
Transfer characteristics : BT.709<br>
Matrix coefficients : BT.709<br>
Codec configuration box : avcC<br>
<br>
Audio<br>
ID : 2<br>
Format : AAC LC<br>
Format/Info : Advanced Audio Codec Low Complexity<br>
Codec ID : mp4a-40-2<br>
Duration : 4 min 22 s<br>
Source duration : 4 min 22 s<br>
Bit rate mode : Variable<br>
Bit rate : 317 kb/s<br>
Maximum bit rate : 426 kb/s<br>
Channel(s) : 2 channels<br>
Channel layout : L R<br>
Sampling rate : 48.0 kHz<br>
Frame rate : 46.875 FPS (1024 SPF)<br>
Compression mode : Lossy<br>
Stream size : 9.95 MiB (1%)<br>
Source stream size : 9.95 MiB (1%)<br>
Language : English<br>
Encoded date : 2023-08-22 07:21:13 UTC<br>
Tagged date : 2023-08-22 07:21:13 UTC</div><div class="quoteExpand">Click to expand...</div></blockquote>
</aside>
</div></div>
</div><b><span style="font-family: 'Book Antiqua'"><span style="font-size: 26px">
<div class="ToggleTriggerAnchor bbCodeSpoilerContainer">
<button type="button" class="button bbCodeSpoilerButton ToggleTrigger Tooltip JsOnly" data-target="> .SpoilerTarget"><span>Spoiler: <span class="SpoilerTitle">Credits</span></span></button>
<div class="SpoilerTarget bbCodeSpoilerText"><span style="color: rgb(179, 179, 0)">Original Uploader</span> - <span style="color: rgb(0, 255, 0)">frizzy</span> from <span style="color: rgb(0, 128, 255)">Jpopsuki</span></div>
</div></span></span></b><span style="font-family: 'Book Antiqua'"><span style="font-size: 15px"><span data-s9e-mediaembed="youtube" style="display:inline-block;width:100%;max-width:640px"><span style="display:block;overflow:hidden;position:relative;padding-bottom:56.25%"><iframe allowfullscreen="" loading="lazy" scrolling="no" style="background:url(https://i.ytimg.com/vi/8qy4LQHSqKg/hqdefault.jpg) 50% 50% / cover;border:0;height:100%;left:0;position:absolute;width:100%" src="https://www.youtube.com/embed/8qy4LQHSqKg"></iframe></span></span><br>
</span></span><br>
<span style="font-size: 15px">
<div class="bbCodeBlock bbCodeVfcHH HiddenContent">
<div class="attribution type">Hidden Content:</div>
<blockquote>You must reply before you can see the hidden data contained here.</blockquote>
</div></span>​</div>
<div class="messageTextEndMarker">&nbsp;</div>
</blockquote>
</article>]]></description>
                <author><![CDATA[WithLoveSNSD]]></author>
                </item>

                
                <item>
                <title><![CDATA[【HD Live Performances】WEB-DL - Simply Red | Radio 2 in The Park 2023 (1080)]]></title>
                <link><![CDATA[https://sharemania.us/threads/simply-red-radio-2-in-the-park-2023-1080.228882/]]></link>
                <description><![CDATA[<article>
<blockquote class="messageText SelectQuoteContainer ugc baseHtml">
<div style="text-align: center"><img src="https://i.imgur.com/tSnUlAi.gif" class="bbCodeImage LbImage" alt="[​IMG]" data-url="https://i.imgur.com/tSnUlAi.gif" style=""><br>
<br>
​</div>
<div class="ToggleTriggerAnchor bbCodeSpoilerContainer">
<button type="button" class="button bbCodeSpoilerButton ToggleTrigger Tooltip JsOnly" data-target="> .SpoilerTarget"><span>Spoiler: <span class="SpoilerTitle">Radio 2 in The Park</span></span></button>
<div class="SpoilerTarget bbCodeSpoilerText">
<div class="bbCodeBlock bbCodeCode">
<div class="type">Code:</div>
<pre>Format                                   : MPEG-4
Format profile                           : Base Media
Codec ID                                 : isom (isom/iso2/avc1/mp41)
File size                                : 2.18 GiB
Duration                                 : 28 min 10 s
Overall bit rate mode                    : Variable
Overall bit rate                         : 11.1 Mb/s
Collection                               : Radio 2 in the Park: 2023
Album                                    : Radio 2 in the Park: 2023
Album/Performer                          : BBC TV
Track name                               : Simply Red
Grouping                                 : Music,Classic Pop &amp; Rock
Performer                                : BBC Radio 2
Composer                                 : BBC iPlayer
Genre                                    : Music
ContentType                              : TV Show
Description                              : Silky vocals meet bouncy grooves on Mick Hucknall's classic hits
Recorded date                            : UTC 2023-09-21 14:17:51
Tagged date                              : UTC 2023-09-21 14:17:51
Copyright                                : 2023 British Broadcasting Corporation, all rights reserved
Cover                                    : Yes
Lyrics                                   : Silky vocals meet bouncy grooves on Mick Hucknall's classic hits /  / PLAY: https://www.bbc.co.uk/iplayer/episode/p0g5ncy3 /  / INFO: https://www.bbc.co.uk/programmes/p0g5ncy3
Comment                                  : Silky vocals meet bouncy grooves on Mick Hucknall's classic hits
Part_ID                                  : p0g5ncy3
TVNetworkName                            : BBC Radio 2
LongDescription                          : Silky vocals meet bouncy grooves on Mick Hucknall's classic hits /  / PLAY: https://www.bbc.co.uk/iplayer/episode/p0g5ncy3 /  / INFO: https://www.bbc.co.uk/programmes/p0g5ncy3

Video
ID                                       : 1
Format                                   : AVC
Format/Info                              : Advanced Video Codec
Format profile                           : High@L4.2
Format settings                          : CABAC / 4 Ref Frames
Format settings, CABAC                   : Yes
Format settings, Reference frames        : 4 frames
Codec ID                                 : avc1
Codec ID/Info                            : Advanced Video Coding
Duration                                 : 28 min 10 s
Bit rate mode                            : Variable
Bit rate                                 : 10.9 Mb/s
Maximum bit rate                         : 12.0 Mb/s
Width                                    : 1 920 pixels
Height                                   : 1 080 pixels
Display aspect ratio                     : 16:9
Frame rate mode                          : Constant
Frame rate                               : 50.000 FPS
Color space                              : YUV
Chroma subsampling                       : 4:2:0
Bit depth                                : 8 bits
Scan type                                : Progressive
Bits/(Pixel*Frame)                       : 0.106
Stream size                              : 2.15 GiB (99%)
Color range                              : Limited
Color primaries                          : BT.709
Transfer characteristics                 : BT.709
Matrix coefficients                      : BT.709
Codec configuration box                  : avcC

Audio
ID                                       : 2
Format                                   : AAC LC
Format/Info                              : Advanced Audio Codec Low Complexity
Codec ID                                 : mp4a-40-2
Duration                                 : 28 min 10 s
Bit rate mode                            : Variable
Bit rate                                 : 128 kb/s
Maximum bit rate                         : 131 kb/s / 131 kb/s
Channel(s)                               : 2 channels
Channel layout                           : L R
Sampling rate                            : 48.0 kHz
Frame rate                               : 46.875 FPS (1024 SPF)
Compression mode                         : Lossy
Stream size                              : 25.8 MiB (1%)
Language                                 : English
Default                                  : Yes
Alternate group                          : 1</pre>
</div><div style="text-align: center">​</div></div>
</div><div style="text-align: center"><br>
<br>
<div class="bbCodeBlock bbCodeVfcHH HiddenContent">
<div class="attribution type">Hidden Content:</div>
<blockquote>You must reply before you can see the hidden data contained here.</blockquote>
</div><img src="https://ichef.bbci.co.uk/images/ic/640x360/p0gf3tfq.jpg" class="bbCodeImage LbImage" alt="[​IMG]" data-url="https://ichef.bbci.co.uk/images/ic/640x360/p0gf3tfq.jpg" style="">​</div>
<div class="messageTextEndMarker">&nbsp;</div>
</blockquote>
</article>]]></description>
                <author><![CDATA[fstambuk]]></author>
                </item>

                
                <item>
                <title><![CDATA[【HD Live Performances】WEB-DL - Bananarama | Radio 2 in The Park 2023 (1080)]]></title>
                <link><![CDATA[https://sharemania.us/threads/bananarama-radio-2-in-the-park-2023-1080.228886/]]></link>
                <description><![CDATA[<article>
<blockquote class="messageText SelectQuoteContainer ugc baseHtml">
<div style="text-align: center"><img src="https://i.imgur.com/irqYyJY.gif" class="bbCodeImage LbImage" alt="[​IMG]" data-url="https://i.imgur.com/irqYyJY.gif" style=""><br>
<br>
​</div>
<div class="ToggleTriggerAnchor bbCodeSpoilerContainer">
<button type="button" class="button bbCodeSpoilerButton ToggleTrigger Tooltip JsOnly" data-target="> .SpoilerTarget"><span>Spoiler: <span class="SpoilerTitle">Radio 2 in The Park</span></span></button>
<div class="SpoilerTarget bbCodeSpoilerText">
<div class="bbCodeBlock bbCodeCode">
<div class="type">Code:</div>
<pre>Format                                   : MPEG-4
Format profile                           : Base Media
Codec ID                                 : isom (isom/iso2/avc1/mp41)
File size                                : 3.51 GiB
Duration                                 : 45 min 41 s
Overall bit rate mode                    : Variable
Overall bit rate                         : 11.0 Mb/s
Collection                               : Radio 2 in the Park: 2023
Album                                    : Radio 2 in the Park: 2023
Album/Performer                          : BBC TV
Track name                               : Bananarama
Grouping                                 : Music,Classic Pop &amp; Rock
Performer                                : BBC Radio 2
Composer                                 : BBC iPlayer
Genre                                    : Music
ContentType                              : TV Show
Description                              : Back-to-back 80s pop classics from the chart-conquering girl group
Recorded date                            : UTC 2023-09-21 13:50:54
Tagged date                              : UTC 2023-09-21 13:50:54
Copyright                                : 2023 British Broadcasting Corporation, all rights reserved
Cover                                    : Yes
Lyrics                                   : Back-to-back 80s pop classics from the chart-conquering girl group /  / PLAY: https://www.bbc.co.uk/iplayer/episode/p0g4pdtb /  / INFO: https://www.bbc.co.uk/programmes/p0g4pdtb
Comment                                  : Back-to-back 80s pop classics from the chart-conquering girl group
Part_ID                                  : p0g4pdtb
TVNetworkName                            : BBC Radio 2
LongDescription                          : Back-to-back 80s pop classics from the chart-conquering girl group /  / PLAY: https://www.bbc.co.uk/iplayer/episode/p0g4pdtb /  / INFO: https://www.bbc.co.uk/programmes/p0g4pdtb

Video
ID                                       : 1
Format                                   : AVC
Format/Info                              : Advanced Video Codec
Format profile                           : High@L4.2
Format settings                          : CABAC / 4 Ref Frames
Format settings, CABAC                   : Yes
Format settings, Reference frames        : 4 frames
Codec ID                                 : avc1
Codec ID/Info                            : Advanced Video Coding
Duration                                 : 45 min 41 s
Bit rate mode                            : Variable
Bit rate                                 : 10.9 Mb/s
Maximum bit rate                         : 12.0 Mb/s
Width                                    : 1 920 pixels
Height                                   : 1 080 pixels
Display aspect ratio                     : 16:9
Frame rate mode                          : Constant
Frame rate                               : 50.000 FPS
Color space                              : YUV
Chroma subsampling                       : 4:2:0
Bit depth                                : 8 bits
Scan type                                : Progressive
Bits/(Pixel*Frame)                       : 0.105
Stream size                              : 3.47 GiB (99%)
Color range                              : Limited
Color primaries                          : BT.709
Transfer characteristics                 : BT.709
Matrix coefficients                      : BT.709
Codec configuration box                  : avcC

Audio
ID                                       : 2
Format                                   : AAC LC
Format/Info                              : Advanced Audio Codec Low Complexity
Codec ID                                 : mp4a-40-2
Duration                                 : 45 min 41 s
Bit rate mode                            : Variable
Bit rate                                 : 128 kb/s
Maximum bit rate                         : 131 kb/s / 131 kb/s
Channel(s)                               : 2 channels
Channel layout                           : L R
Sampling rate                            : 48.0 kHz
Frame rate                               : 46.875 FPS (1024 SPF)
Compression mode                         : Lossy
Stream size                              : 41.8 MiB (1%)
Language                                 : English
Default                                  : Yes
Alternate group                          : 1</pre>
</div><div style="text-align: center">​</div></div>
</div><div style="text-align: center"><br>
<br>
<div class="bbCodeBlock bbCodeVfcHH HiddenContent">
<div class="attribution type">Hidden Content:</div>
<blockquote>You must reply before you can see the hidden data contained here.</blockquote>
</div><img src="https://ichef.bbci.co.uk/images/ic/640x360/p0dnq439.jpg" class="bbCodeImage LbImage" alt="[​IMG]" data-url="https://ichef.bbci.co.uk/images/ic/640x360/p0dnq439.jpg" style="">​</div>
<div class="messageTextEndMarker">&nbsp;</div>
</blockquote>
</article>]]></description>
                <author><![CDATA[fstambuk]]></author>
                </item>

                
                <item>
                <title><![CDATA[【HD Live Performances】WEB-DL - Soft Cell | Radio 2 in The Park 2023 (1080)]]></title>
                <link><![CDATA[https://sharemania.us/threads/soft-cell-radio-2-in-the-park-2023-1080.228885/]]></link>
                <description><![CDATA[<article>
<blockquote class="messageText SelectQuoteContainer ugc baseHtml">
<div style="text-align: center"><img src="https://i.imgur.com/kQVwIaE.gif" class="bbCodeImage LbImage" alt="[​IMG]" data-url="https://i.imgur.com/kQVwIaE.gif" style=""><br>
<br>
​</div>
<div class="ToggleTriggerAnchor bbCodeSpoilerContainer">
<button type="button" class="button bbCodeSpoilerButton ToggleTrigger Tooltip JsOnly" data-target="> .SpoilerTarget"><span>Spoiler: <span class="SpoilerTitle">Radio 2 in The Park</span></span></button>
<div class="SpoilerTarget bbCodeSpoilerText">
<div class="bbCodeBlock bbCodeCode">
<div class="type">Code:</div>
<pre>Format                                   : MPEG-4
Format profile                           : Base Media
Codec ID                                 : isom (isom/iso2/avc1/mp41)
File size                                : 2.38 GiB
Duration                                 : 29 min 54 s
Overall bit rate mode                    : Variable
Overall bit rate                         : 11.4 Mb/s
Collection                               : Radio 2 in the Park: 2023
Album                                    : Radio 2 in the Park: 2023
Album/Performer                          : BBC TV
Track name                               : Soft Cell
Grouping                                 : Music,Classic Pop &amp; Rock
Performer                                : BBC Radio 2
Composer                                 : BBC iPlayer
Genre                                    : Music
ContentType                              : TV Show
Description                              : The 80s synth-pop originators open Radio 2 in the Park
Recorded date                            : UTC 2023-09-21 14:33:15
Tagged date                              : UTC 2023-09-21 14:33:15
Copyright                                : 2023 British Broadcasting Corporation, all rights reserved
Cover                                    : Yes
Lyrics                                   : The 80s synth-pop originators open Radio 2 in the Park /  / PLAY: https://www.bbc.co.uk/iplayer/episode/p0g4pgfl /  / INFO: https://www.bbc.co.uk/programmes/p0g4pgfl
Comment                                  : The 80s synth-pop originators open Radio 2 in the Park
Part_ID                                  : p0g4pgfl
TVNetworkName                            : BBC Radio 2
LongDescription                          : The 80s synth-pop originators open Radio 2 in the Park /  / PLAY: https://www.bbc.co.uk/iplayer/episode/p0g4pgfl /  / INFO: https://www.bbc.co.uk/programmes/p0g4pgfl

Video
ID                                       : 1
Format                                   : AVC
Format/Info                              : Advanced Video Codec
Format profile                           : High@L4.2
Format settings                          : CABAC / 4 Ref Frames
Format settings, CABAC                   : Yes
Format settings, Reference frames        : 4 frames
Codec ID                                 : avc1
Codec ID/Info                            : Advanced Video Coding
Duration                                 : 29 min 54 s
Bit rate mode                            : Variable
Bit rate                                 : 11.2 Mb/s
Maximum bit rate                         : 12.0 Mb/s
Width                                    : 1 920 pixels
Height                                   : 1 080 pixels
Display aspect ratio                     : 16:9
Frame rate mode                          : Constant
Frame rate                               : 50.000 FPS
Color space                              : YUV
Chroma subsampling                       : 4:2:0
Bit depth                                : 8 bits
Scan type                                : Progressive
Bits/(Pixel*Frame)                       : 0.108
Stream size                              : 2.35 GiB (99%)
Color range                              : Limited
Color primaries                          : BT.709
Transfer characteristics                 : BT.709
Matrix coefficients                      : BT.709
Codec configuration box                  : avcC

Audio
ID                                       : 2
Format                                   : AAC LC
Format/Info                              : Advanced Audio Codec Low Complexity
Codec ID                                 : mp4a-40-2
Duration                                 : 29 min 54 s
Bit rate mode                            : Variable
Bit rate                                 : 128 kb/s
Maximum bit rate                         : 131 kb/s / 131 kb/s
Channel(s)                               : 2 channels
Channel layout                           : L R
Sampling rate                            : 48.0 kHz
Frame rate                               : 46.875 FPS (1024 SPF)
Compression mode                         : Lossy
Stream size                              : 27.4 MiB (1%)
Language                                 : English
Default                                  : Yes
Alternate group                          : 1</pre>
</div><div style="text-align: center">​</div></div>
</div><div style="text-align: center"><br>
<br>
<br>
<div class="bbCodeBlock bbCodeVfcHH HiddenContent">
<div class="attribution type">Hidden Content:</div>
<blockquote>You must reply before you can see the hidden data contained here.</blockquote>
</div><img src="https://ichef.bbci.co.uk/images/ic/640x360/p0gf00ml.jpg" class="bbCodeImage LbImage" alt="[​IMG]" data-url="https://ichef.bbci.co.uk/images/ic/640x360/p0gf00ml.jpg" style="">​</div>
<div class="messageTextEndMarker">&nbsp;</div>
</blockquote>
</article>]]></description>
                <author><![CDATA[fstambuk]]></author>
                </item>

                
                <item>
                <title><![CDATA[【Requests】[REQ AUD] - R3HAB x Amy Shark - Sway My Way flac 24/16bit]]></title>
                <link><![CDATA[https://sharemania.us/threads/r3hab-x-amy-shark-sway-my-way-flac-24-16bit.228889/]]></link>
                <description><![CDATA[<article>
<blockquote class="messageText SelectQuoteContainer ugc baseHtml">
Links dead, thanks for sharing
<div class="messageTextEndMarker">&nbsp;</div>
</blockquote>
</article>]]></description>
                <author><![CDATA[zeroaeon3]]></author>
                </item>

                
                <item>
                <title><![CDATA[【Albums (lossless)】FLAC - Kylie Minogue - Tension (Deluxe) | Qobuz Hi-Res 24bit / 44.1kHz]]></title>
                <link><![CDATA[https://sharemania.us/threads/kylie-minogue-tension-deluxe-qobuz-hi-res-24bit-44-1khz.228883/]]></link>
                <description><![CDATA[<article>
<blockquote class="messageText SelectQuoteContainer ugc baseHtml">
<div style="text-align: center"><img src="https://static.qobuz.com/images/covers/xc/vk/hhssdcuizvkxc_600.jpg" class="bbCodeImage LbImage" alt="[​IMG]" data-url="https://static.qobuz.com/images/covers/xc/vk/hhssdcuizvkxc_600.jpg" style=""><br>
<span style="font-size: 15px"><b>Kylie Minogue – Tension (Deluxe)</b></span><br>
<br>
<b>Label/Cat#:</b> BMG – 928044, BMG Rights Management – 928044<br>
<b>Year:</b> September 22, 2023<br>
<b>Genre:</b> Pop<br>
<br>
<span style="font-size: 12px"><b>Tracklist</b></span><br>
<b>1.</b> Padam Padam <i>(02:46)</i><br>
<b>2.</b> Hold on to Now <i>(03:57)</i><br>
<b>3.</b> Things We Do for Love <i>(03:09)</i><br>
<b>4.</b> Tension <i>(03:36)</i><br>
<b>5.</b> One More Time <i>(03:02)</i><br>
<b>6.</b> You Still Get Me High <i>(03:38)</i><br>
<b>7.</b> Hands <i>(02:45)</i><br>
<b>8.</b> Green Light <i>(03:19)</i><br>
<b>9.</b> Vegas High <i>(03:33)</i><br>
<b>10.</b> 10 Out of 10 (feat. Oliver Heldens) <i>(02:51)</i><br>
<b>11.</b> Story <i>(03:17)</i><br>
<b>12.</b> Love Train <i>(02:55)</i><br>
<b>13.</b> Just Imagine <i>(02:36)</i><br>
<b>14.</b> Somebody to Love <i>(03:52)</i><br>
<br>
<b>Total length:</b> 45:16<br>
<div class="bbCodeBlock bbCodeVfcHH HiddenContent">
<div class="attribution type">Hidden Content:</div>
<blockquote>You must reply before you can see the hidden data contained here.</blockquote>
</div></div>
<div class="messageTextEndMarker">&nbsp;</div>
</blockquote>
</article>]]></description>
                <author><![CDATA[Yennefer]]></author>
                </item>

                
                <item>
                <title><![CDATA[【HD Live Performances】WEB-DL - Rick Astley | Radio 2 in The Park 2023 (1080)]]></title>
                <link><![CDATA[https://sharemania.us/threads/rick-astley-radio-2-in-the-park-2023-1080.228890/]]></link>
                <description><![CDATA[<article>
<blockquote class="messageText SelectQuoteContainer ugc baseHtml">
thanks
<div class="messageTextEndMarker">&nbsp;</div>
</blockquote>
</article>]]></description>
                <author><![CDATA[fstambuk]]></author>
                </item>

                
                <item>
                <title><![CDATA[【Singles (lossless)】FLAC - SB19 - GENTO (Qobuz FLAC 24bits/96kHz)]]></title>
                <link><![CDATA[https://sharemania.us/threads/sb19-gento-qobuz-flac-24bits-96khz.228888/]]></link>
                <description><![CDATA[<article>
<blockquote class="messageText SelectQuoteContainer ugc baseHtml">
thanks
<div class="messageTextEndMarker">&nbsp;</div>
</blockquote>
</article>]]></description>
                <author><![CDATA[Eric Lyn]]></author>
                </item>

                </channel></rss>